<svg width="230" height="96" viewBox="0 0 230 96" fill="none" xmlns="http://www.w3.org/2000/svg">
<rect width="230" height="96" fill="#E5E5E5"/>
<g clip-path="url(#clip0_0_1)">
<rect width="1440" height="8564" transform="translate(-149 -6988)" fill="white"/>
<path d="M-149 -274H1291V264H-149V-274Z" fill="#EDE6DD"/>
<path d="M-29 -16C-29 -20.4183 -25.4183 -24 -21 -24H251C255.418 -24 259 -20.4183 259 -16V112C259 116.418 255.418 120 251 120H-21C-25.4183 120 -29 116.418 -29 112V-16Z" fill="#1E1928" fill-opacity="0.08"/>
<g clip-path="url(#clip1_0_1)">
<path fill-rule="evenodd" clip-rule="evenodd" d="M70 33.7625V41.525H77.595H85.1901V56.2625V71H92.6137H100.037V56.2625V41.525H107.632H115.228V56.2625V71H137.614H160L159.97 63.4906L159.941 55.9811L144.951 55.9526L129.961 55.9241V48.725V41.5258L144.951 41.4973L159.941 41.4688L159.97 33.7344L160 26H144.98H129.961V33.7063V41.4125H122.594H115.228V33.7063V26H92.6137H70V33.7625Z" fill="#666565"/>
</g>
</g>
<defs>
<clipPath id="clip0_0_1">
<rect width="1440" height="8564" fill="white" transform="translate(-149 -6988)"/>
</clipPath>
<clipPath id="clip1_0_1">
<rect width="230" height="96" fill="white"/>
</clipPath>
</defs>
</svg>
